<svg width="450" height="450" viewBox="0 0 450 450" fill="none" xmlns="http://www.w3.org/2000/svg">
<g filter="url(#filter0_i_125_735)">
<circle cx="225" cy="225" r="217" stroke="#FF3900" stroke-width="16"/>
</g>
<g filter="url(#filter1_i_125_735)">
<circle cx="225" cy="225" r="148" stroke="#FF3900" stroke-width="14"/>
</g>
<path d="M187.28 318L256.623 180.784V179.641H175.846V150.727H293.214V180.049L223.79 318H187.28Z" fill="#003258"/>
<path d="M88.4424 173.822C88.4424 173.822 101.426 207.493 123.254 266.261C145.083 325.03 175.756 361.881 175.756 361.881" stroke="#FF3900" stroke-width="10"/>
<path d="M274.854 363.336C274.854 363.336 292.194 331.688 322.997 277.085C353.799 222.483 362.152 175.269 362.152 175.269" stroke="#FF3900" stroke-width="10"/>
<path d="M133.5 105.5L315.5 105.5" stroke="#FF3900" stroke-width="7"/>
<path d="M58.8854 146.559C57.9914 146.655 57.1792 146.867 56.4487 147.196C55.7066 147.523 55.0521 147.968 54.4853 148.53C53.9088 149.078 53.4268 149.738 53.0392 150.512C52.6537 151.274 52.3754 152.144 52.2041 153.124C51.8841 154.954 52.0576 156.643 52.7245 158.19C53.3935 159.724 54.5294 161.029 56.1323 162.102C57.7235 163.173 59.7667 163.927 62.262 164.363C64.7573 164.799 66.9457 164.791 68.8273 164.339C70.7088 163.887 72.2315 163.048 73.3952 161.821C74.5472 160.592 75.2884 159.034 75.6186 157.145C75.9182 155.431 75.8709 153.914 75.4765 152.596C75.0726 151.263 74.3669 150.179 73.3596 149.342C72.3544 148.493 71.088 147.935 69.5605 147.668L70.057 146.169L68.4426 155.404L62.7407 154.407L65.361 139.417L69.8735 140.206C73.0218 140.757 75.6108 141.894 77.6406 143.619C79.6586 145.342 81.076 147.476 81.8927 150.022C82.6977 152.566 82.8372 155.342 82.3113 158.351C81.7243 161.709 80.4682 164.529 78.5429 166.813C76.6061 169.094 74.1432 170.706 71.1544 171.649C68.1559 172.579 64.7677 172.714 60.9897 172.054C58.0863 171.546 55.5711 170.674 53.4441 169.437C51.3075 168.186 49.5798 166.658 48.261 164.854C46.9422 163.049 46.0462 161.06 45.573 158.886C45.0998 156.712 45.0701 154.442 45.4839 152.075C45.8386 150.046 46.4661 148.209 47.3665 146.564C48.2553 144.917 49.3543 143.511 50.6635 142.346C51.9747 141.169 53.4462 140.279 55.0779 139.675C56.6979 139.069 58.4155 138.798 60.2307 138.863L58.8854 146.559Z" fill="#003258"/>
<path d="M96.586 133.411L92.2026 140.387L68.0922 110.41L73.3636 102.021L110.823 110.755L106.439 117.731L77.8393 110.517L77.6882 110.757L96.586 133.411ZM84.2097 126.242L94.5637 109.765L99.6451 112.958L89.2912 129.435L84.2097 126.242Z" fill="#003258"/>
<path d="M119.519 105.421L97.0448 76.8339L108.323 67.9672C110.482 66.27 112.628 65.2076 114.762 64.7802C116.897 64.3362 118.917 64.5022 120.822 65.2782C122.729 66.0376 124.425 67.3618 125.91 69.2509C127.403 71.1493 128.277 73.1043 128.534 75.116C128.783 77.1185 128.416 79.0935 127.432 81.0411C126.458 82.9813 124.873 84.8147 122.677 86.5412L115.125 92.478L111.307 87.6204L117.881 82.4518C119.035 81.5446 119.869 80.6329 120.383 79.7166C120.898 78.8003 121.092 77.8795 120.967 76.9541C120.851 76.0213 120.424 75.085 119.685 74.1451C118.939 73.1959 118.119 72.5456 117.225 72.1942C116.341 71.8354 115.381 71.7921 114.345 72.0643C113.311 72.3199 112.213 72.9049 111.05 73.8194L106.974 77.0237L125.563 100.67L119.519 105.421ZM124.73 80.2749L142.062 87.6987L135.39 92.9441L118.211 85.3996L124.73 80.2749Z" fill="#003258"/>
<path d="M156.291 80.1894L148.725 83.451L145.857 45.0886L154.955 41.1663L180.862 69.5965L173.297 72.858L153.826 50.702L153.565 50.8144L156.291 80.1894ZM150.159 67.2677L168.03 59.5637L170.405 65.0749L152.535 72.7788L150.159 67.2677Z" fill="#003258"/>
<path d="M220.703 27.7203L223.443 63.9806L216.821 64.481L199.321 42.8511L199.056 42.8711L200.78 65.6931L193.114 66.2725L190.374 30.0122L197.102 29.5038L214.476 51.1254L214.795 51.1013L213.072 28.297L220.703 27.7203Z" fill="#003258"/>
<path d="M239.104 33.4366L239.91 27.1492L269.533 30.9466L268.727 37.2339L257.685 35.8184L253.867 65.5995L246.329 64.6333L250.147 34.8521L239.104 33.4366Z" fill="#003258"/>
<path d="M295.599 39.3849L282.318 73.2365L275.16 70.4285L288.441 36.5769L295.599 39.3849Z" fill="#003258"/>
<path d="M300.451 82.0776L293.721 77.3252L324.951 54.8625L333.045 60.5777L322.308 97.5126L315.578 92.7602L324.321 64.5898L324.089 64.426L300.451 82.0776ZM308.275 70.105L324.172 81.3304L320.71 86.2327L304.813 75.0073L308.275 70.105Z" fill="#003258"/>
<path d="M354.275 126.164L347.697 115.079L378.969 96.5214L385.601 107.699C387.468 110.844 388.449 113.924 388.544 116.937C388.649 119.944 387.898 122.75 386.292 125.355C384.692 127.97 382.268 130.241 379.021 132.168C375.763 134.101 372.598 135.146 369.526 135.304C366.46 135.472 363.621 134.782 361.01 133.234C358.405 131.697 356.16 129.34 354.275 126.164ZM357.285 118.329L359.777 122.528C360.937 124.482 362.258 125.921 363.742 126.844C365.242 127.771 366.924 128.135 368.789 127.937C370.669 127.743 372.775 126.955 375.106 125.571C377.417 124.2 379.103 122.738 380.164 121.186C381.232 119.645 381.716 118.002 381.616 116.257C381.517 114.513 380.888 112.664 379.728 110.709L377.227 106.495L357.285 118.329Z" fill="#003258"/>
<path d="M370.543 152.265L405.62 142.679L412.08 166.315L405.966 167.986L401.533 151.766L393.175 154.05L397.275 169.054L391.161 170.725L387.06 155.721L378.685 158.011L383.136 174.299L377.022 175.97L370.543 152.265Z" fill="#003258"/>
<path d="M154.64 407.073L142.537 402.636L155.053 368.494L167.256 372.968C170.69 374.227 173.396 375.994 175.373 378.27C177.355 380.534 178.546 383.183 178.946 386.217C179.358 389.255 178.914 392.547 177.614 396.092C176.311 399.649 174.518 402.459 172.236 404.522C169.965 406.589 167.329 407.848 164.327 408.298C161.336 408.753 158.107 408.344 154.64 407.073ZM152.023 399.097L156.607 400.778C158.741 401.56 160.674 401.84 162.407 401.618C164.156 401.389 165.69 400.609 167.01 399.278C168.345 397.939 169.48 395.997 170.413 393.452C171.337 390.929 171.721 388.731 171.563 386.858C171.416 384.989 170.753 383.409 169.574 382.12C168.396 380.83 166.739 379.794 164.605 379.012L160.004 377.325L152.023 399.097Z" fill="#003258"/>
<path d="M211.32 386.203L210.536 422.558L202.85 422.392L203.634 386.037L211.32 386.203Z" fill="#003258"/>
<path d="M246.133 422.441L238.03 423.93L243.805 385.896L253.55 384.106L272.451 417.605L264.348 419.094L250.319 393.148L250.04 393.199L246.133 422.441ZM243.044 408.476L262.184 404.959L263.268 410.862L244.128 414.379L243.044 408.476Z" fill="#003258"/>
<path d="M308.255 380.721C307.743 379.376 306.864 378.461 305.617 377.977C304.37 377.493 302.855 377.492 301.073 377.975C299.862 378.303 298.885 378.751 298.144 379.32C297.4 379.877 296.885 380.513 296.6 381.228C296.327 381.939 296.293 382.672 296.497 383.426C296.644 384.061 296.924 384.574 297.336 384.965C297.76 385.353 298.276 385.649 298.883 385.852C299.486 386.044 300.159 386.175 300.902 386.244C301.641 386.301 302.416 386.312 303.228 386.276L306.586 386.177C308.21 386.105 309.739 386.181 311.173 386.406C312.608 386.631 313.906 387.034 315.069 387.614C316.232 388.195 317.223 388.981 318.043 389.973C318.875 390.962 319.495 392.186 319.902 393.645C320.472 395.796 320.428 397.807 319.77 399.678C319.119 401.534 317.895 403.171 316.096 404.59C314.306 405.995 311.982 407.084 309.126 407.857C306.292 408.624 303.707 408.858 301.369 408.559C299.043 408.257 297.061 407.414 295.424 406.03C293.794 404.631 292.609 402.677 291.868 400.168L299.05 398.224C299.448 399.379 300.051 400.27 300.859 400.898C301.675 401.511 302.639 401.881 303.753 402.009C304.875 402.122 306.076 402.005 307.356 401.659C308.613 401.319 309.654 400.84 310.481 400.224C311.319 399.605 311.907 398.9 312.245 398.11C312.582 397.319 312.637 396.501 312.408 395.656C312.195 394.867 311.781 394.268 311.167 393.858C310.565 393.445 309.767 393.17 308.774 393.034C307.792 392.895 306.619 392.845 305.256 392.883L301.174 392.958C298.02 393.039 295.379 392.546 293.25 391.479C291.122 390.412 289.712 388.58 289.022 385.983C288.435 383.861 288.498 381.851 289.21 379.954C289.934 378.053 291.181 376.385 292.951 374.95C294.721 373.514 296.885 372.45 299.445 371.757C302.05 371.052 304.444 370.882 306.628 371.247C308.823 371.609 310.678 372.438 312.193 373.732C313.709 375.026 314.767 376.714 315.367 378.796L308.255 380.721Z" fill="#003258"/>
<defs>
<filter id="filter0_i_125_735" x="0" y="0" width="456" height="453" filterUnits="userSpaceOnUse" color-interpolation-filters="sRGB">
<feFlood flood-opacity="0" result="BackgroundImageFix"/>
<feBlend mode="normal" in="SourceGraphic" in2="BackgroundImageFix" result="shape"/>
<feColorMatrix in="SourceAlpha" type="matrix" values="0 0 0 0 0 0 0 0 0 0 0 0 0 0 0 0 0 0 127 0" result="hardAlpha"/>
<feOffset dx="6" dy="3"/>
<feGaussianBlur stdDeviation="7"/>
<feComposite in2="hardAlpha" operator="arithmetic" k2="-1" k3="1"/>
<feColorMatrix type="matrix" values="0 0 0 0 0 0 0 0 0 0 0 0 0 0 0 0 0 0 0.5 0"/>
<feBlend mode="normal" in2="shape" result="effect1_innerShadow_125_735"/>
</filter>
<filter id="filter1_i_125_735" x="70" y="70" width="310" height="314" filterUnits="userSpaceOnUse" color-interpolation-filters="sRGB">
<feFlood flood-opacity="0" result="BackgroundImageFix"/>
<feBlend mode="normal" in="SourceGraphic" in2="BackgroundImageFix" result="shape"/>
<feColorMatrix in="SourceAlpha" type="matrix" values="0 0 0 0 0 0 0 0 0 0 0 0 0 0 0 0 0 0 127 0" result="hardAlpha"/>
<feOffset dy="4"/>
<feGaussianBlur stdDeviation="2"/>
<feComposite in2="hardAlpha" operator="arithmetic" k2="-1" k3="1"/>
<feColorMatrix type="matrix" values="0 0 0 0 0 0 0 0 0 0 0 0 0 0 0 0 0 0 0.25 0"/>
<feBlend mode="normal" in2="shape" result="effect1_innerShadow_125_735"/>
</filter>
</defs>
</svg>
